#!OML:ASF F:\VICON\USERDATA\INSTALL\rory3\rory3.ASF
:FULLY-SPECIFIED
:DEGREES
1143
root -5.12275 17.0427 10.4345 -159.029 -33.9032 -178.619
lowerback -15.4842 5.90681 1.61856
upperback -17.3602 4.86014 0.933399
thorax -10.2801 1.07527 0.660811
lowerneck 0.104829 15.3668 7.10864
upperneck 18.6297 17.6428 14.6461
head 4.96271 9.71911 4.10854
rclavicle -2.3059e-014 -3.81667e-014
rhumerus -93.9481 31.7854 -127.858
rradius 57.4761
rwrist -42.4365
rhand 29.8353 -2.8531
rfingers 7.12502
rthumb 53.5588 -21.9851
lclavicle -2.3059e-014 -3.81667e-014
lhumerus 36.0263 -18.7449 -10.2756
lradius 33.7052
lwrist -10.5002
lhand 21.2174 23.8211
lfingers 7.12502
lthumb 45.6674 47.0529
rfemur -7.40505 -11.209 30.6677
rtibia 35.3315
rfoot -6.38415 -33.9383
rtoes 24.3347
lfemur -39.8237 6.45495 -34.5269
ltibia 28.6364
lfoot -27.1648 27.262
ltoes 7.68325
1144
root -5.14099 17.0411 10.4023 -159.037 -34.2835 -178.892
lowerback -15.3989 5.50177 1.01375
upperback -17.1836 4.4423 1.30103
thorax -10.2025 0.986722 1.35571
lowerneck -0.481783 15.4966 6.49306
upperneck 18.7626 17.8287 14.6283
head 5.02895 9.80992 4.23971
rclavicle -6.0033e-014 -5.96354e-014
rhumerus -95.9788 33.2524 -129.784
rradius 58.7462
rwrist -43.2643
rhand 28.5171 -2.46525
rfingers 7.12502
rthumb 52.3689 -22.3492
lclavicle -6.0033e-014 -5.96354e-014
lhumerus 35.8424 -16.9759 -9.87297
lradius 33.306
lwrist -10.9612
lhand 20.9735 23.5326
lfingers 7.12502
lthumb 45.4409 46.8564
rfemur -7.55851 -11.8414 30.728
rtibia 35.9909
rfoot -2.93517 -32.3464
rtoes 22.2385
lfemur -39.5712 6.63111 -34.794
ltibia 28.781
lfoot -27.7034 26.7462
ltoes 7.14171
1145
root -5.16725 17.0407 10.3772 -158.978 -34.7351 -178.887
lowerback -15.4481 5.90069 0.958278
upperback -17.5462 4.89107 0.562915
thorax -10.5576 1.13717 0.615742
lowerneck 0.723801 14.8202 8.27869
upperneck 17.9791 17.0482 13.9198
head 4.86864 9.40139 3.65505
rclavicle -7.25564e-014 2.54444e-014
rhumerus -96.1333 31.8356 -130.036
rradius 59.6972
rwrist -43.032
rhand 28.3618 -2.22209
rfingers 7.12502
rthumb 52.2282 -22.1912
lclavicle -7.25564e-014 2.54444e-014
lhumerus 38.3062 -15.5938 -10.0081
lradius 32.9794
lwrist -11.4564
lhand 20.8094 23.7428
lfingers 7.12502
lthumb 45.2883 47.1278
rfemur -7.93944 -12.6388 30.9997
rtibia 36.5685
rfoot 0.436403 -30.1172
rtoes 19.9409
lfemur -39.4736 6.12863 -34.5876
ltibia 28.9355
lfoot -28.8161 26.3674
ltoes 7.97927
1146
root -5.19926 17.04 10.3535 -159.044 -35.1424 -178.558
lowerback -15.7429 5.4384 1.09197
upperback -17.3572 4.29403 1.20033
thorax -10.2082 0.879094 1.21255
lowerneck 0.526603 15.1551 7.7934
upperneck 17.9231 17.6188 13.5532
head 4.84843 9.6533 3.63822
rclavicle 5.48646e-014 4.05521e-014
rhumerus -98.1827 33.8193 -131.726
rradius 61.0373
rwrist -42.8903
rhand 28.1327 -1.75806
rfingers 7.12502
rthumb 52.0206 -21.8515
lclavicle 5.48646e-014 4.05521e-014
lhumerus 37.3119 -13.8683 -9.4791
lradius 32.742
lwrist -11.8785
lhand 20.7615 24.3319
lfingers 7.12502
lthumb 45.2438 47.7347
rfemur -8.35912 -13.3391 31.4894
rtibia 37.0781
rfoot 2.82191 -27.4587
rtoes 14.8152
lfemur -39.494 5.92661 -34.2499
ltibia 29.0814
lfoot -29.271 26.2634
ltoes 7.10902
1147
root -5.22321 17.0412 10.3312 -158.978 -35.36 -178.359
lowerback -15.955 5.2875 0.987527
upperback -17.3607 4.08846 1.49539
thorax -10.1318 0.802368 1.58788
lowerneck 0.212149 15.2541 7.50605
upperneck 18.0859 17.7535 13.4631
head 4.92525 9.72164 3.68777
rclavicle -4.77083e-014 7.95139e-016
rhumerus -99.8611 34.8685 -132.984
rradius 62.2924
rwrist -42.6277
rhand 27.4933 -0.988519
rfingers 7.12502
rthumb 51.4399 -21.4211
lclavicle -4.77083e-014 7.95139e-016
lhumerus 37.1731 -12.3852 -9.0948
lradius 32.7285
lwrist -12.1613
lhand 20.7734 24.7456
lfingers 7.12502
lthumb 45.2549 48.1441
rfemur -8.86563 -13.7393 31.8698
rtibia 37.4451
rfoot 4.97829 -24.9638
rtoes 9.77898
lfemur -39.6835 6.01609 -34.1567
ltibia 29.2507
lfoot -29.5247 25.6862
ltoes 8.44693
1148
root -5.24341 17.0398 10.3136 -158.727 -35.5412 -178.46
lowerback -16.1027 5.18045 0.715206
upperback -17.437 3.94352 1.57483
thorax -10.1745 0.755839 1.8225
lowerneck 0.114369 15.271 7.27408
upperneck 18.1083 17.7751 13.545
head 4.91492 9.7295 3.74759
rclavicle 2.70347e-014 1.59028e-015
rhumerus -101.327 35.6571 -134.169
rradius 63.4447
rwrist -42.4055
rhand 26.7062 -0.338281
rfingers 7.12502
rthumb 50.7228 -21.1731
lclavicle 2.70347e-014 1.59028e-015
lhumerus 37.304 -11.0188 -8.79837
lradius 32.7504
lwrist -12.3779
lhand 20.6904 25.1199
lfingers 7.12502
lthumb 45.1777 48.5492
rfemur -9.33923 -14.1131 32.0085
rtibia 37.6748
rfoot 6.84561 -22.5404
rtoes 6.41384
lfemur -39.8564 5.84588 -34.2478
ltibia 29.4161
lfoot -30.3315 24.7648
ltoes 10.9815
1149
root -5.26553 17.0375 10.297 -158.618 -35.6251 -178.423
lowerback -16.197 5.02013 0.579294
upperback -17.4551 3.73107 1.7781
thorax -10.1694 0.672872 2.10951
lowerneck 0.0381285 15.3145 6.9755
upperneck 18.0173 17.8732 13.5333
head 4.86435 9.76283 3.78147
rclavicle 3.22031e-014 2.8625e-014
rhumerus -102.934 36.777 -135.404
rradius 64.5901
rwrist -41.9409
rhand 25.3853 0.694233
rfingers 7.12502
rthumb 49.5146 -20.7797
lclavicle 3.22031e-014 2.8625e-014
lhumerus 37.2027 -9.6764 -8.55898
lradius 32.6486
lwrist -12.4899
lhand 20.4958 25.5786
lfingers 7.12502
lthumb 44.9967 49.0795
rfemur -9.63876 -14.3995 32.186
rtibia 37.7642
rfoot 8.34398 -19.9959
rtoes 3.52675
lfemur -39.9609 5.83549 -34.2581
ltibia 29.547
lfoot -30.9113 24.2622
ltoes 10.7188
1150
root -5.28258 17.0405 10.2834 -158.666 -35.6742 -178.144
lowerback -16.3667 4.8517 0.558625
upperback -17.339 3.5244 2.15632
thorax -9.96238 0.60205 2.52384
lowerneck -0.336518 15.2939 6.46007
upperneck 18.0669 17.8598 13.5087
head 4.88919 9.7446 3.86849
rclavicle 1.15295e-014 -3.18055e-015
rhumerus -104.213 38.1557 -136.052
rradius 65.7299
rwrist -41.3028
rhand 27.3027 0.135925
rfingers 7.12502
rthumb 51.2665 -20.3955
lclavicle 1.15295e-014 -3.18055e-015
lhumerus 37.012 -8.02775 -7.98721
lradius 32.4104
lwrist -12.76
lhand 20.3869 25.8778
lfingers 7.12502
lthumb 44.8953 49.4185
rfemur -9.91687 -14.5219 32.562
rtibia 37.7325
rfoot 9.83925 -17.5569
rtoes 1.86744
lfemur -40.0829 5.73541 -33.9724
ltibia 29.6735
lfoot -30.0158 24.14
ltoes 10.1453
1151
root -5.30006 17.0402 10.272 -158.668 -35.6983 -177.989
lowerback -16.5378 4.86208 0.465237
upperback -17.291 3.54713 2.24919
thorax -9.82943 0.631754 2.68388
lowerneck -0.532795 15.0063 6.25913
upperneck 18.0461 17.4609 13.5
head 4.90939 9.54091 3.89242
rclavicle -1.94809e-014 -5.56597e-014
rhumerus -106.06 39.1992 -137.781
rradius 67.0842
rwrist -41.4022
rhand 24.8287 1.06567
rfingers 7.12502
rthumb 49.0038 -20.6648
lclavicle -1.94809e-014 -5.56597e-014
lhumerus 37.5345 -6.57199 -7.44885
lradius 32.17
lwrist -12.9637
lhand 19.9649 25.931
lfingers 7.12502
lthumb 44.5023 49.624
rfemur -10.0854 -14.689 32.7893
rtibia 37.5819
rfoot 10.9522 -15.1751
rtoes -1.77028
lfemur -40.2238 5.85409 -33.9217
ltibia 29.8318
lfoot -29.0358 25.1028
ltoes 3.47683
1152
root -5.31681 17.0344 10.2616 -158.573 -35.7541 -177.943
lowerback -16.6308 4.90681 0.371099
upperback -17.3465 3.597 2.18313
thorax -9.85294 0.657012 2.67256
lowerneck -0.715604 14.6359 6.08539
upperneck 18.1282 16.8992 13.6609
head 4.95415 9.26726 3.96174
rclavicle 1.31198e-014 4.69132e-014
rhumerus -107.136 39.8846 -138.536
rradius 68.1585
rwrist -40.3326
rhand 24.6132 1.77642
rfingers 7.12502
rthumb 48.8058 -20.0515
lclavicle 1.31198e-014 4.69132e-014
lhumerus 38.1864 -5.02073 -6.64641
lradius 31.803
lwrist -13.6312
lhand 19.3915 25.3812
lfingers 7.12502
lthumb 43.9678 49.2761
rfemur -10.2436 -14.8986 32.9315
rtibia 37.3532
rfoot 12.0217 -12.9927
rtoes -6.8022
lfemur -40.4323 6.30667 -34.145
ltibia 29.9916
lfoot -28.0429 25.207
ltoes 0.131724
1153
root -5.34053 17.0334 10.2498 -158.488 -35.8272 -177.802
lowerback -16.8899 4.77612 0.46344
upperback -17.2734 3.40664 2.36706
thorax -9.62309 0.561134 2.81589
lowerneck -1.07371 14.4348 5.72357
upperneck 18.3038 16.6016 13.6455
head 5.04544 9.11638 4.0323
rclavicle -6.36111e-015 4.85035e-014
rhumerus -107.977 41.2459 -138.832
rradius 69.0805
rwrist -38.8933
rhand 25.6816 2.07872
rfingers 7.12502
rthumb 49.7862 -19.2555
lclavicle -6.36111e-015 4.85035e-014
lhumerus 38.0479 -3.28188 -5.78756
lradius 31.5667
lwrist -14.1616
lhand 18.9176 25.0787
lfingers 7.12502
lthumb 43.5254 49.1363
rfemur -10.4707 -15.137 33.1089
rtibia 37.1491
rfoot 13.2789 -11.2333
rtoes -8.85215
lfemur -40.5918 6.53898 -34.1884
ltibia 30.0907
lfoot -27.9142 24.9029
ltoes 0.0097335
1154
root -5.37164 17.0354 10.235 -158.506 -35.97 -177.58
lowerback -17.1983 4.6615 0.724655
upperback -17.2159 3.20883 2.53476
thorax -9.37101 0.43821 2.84748
lowerneck -1.46425 14.1596 5.60041
upperneck 18.7665 16.1577 13.5046
head 5.27546 8.90673 4.05397
rclavicle -5.76476e-014 -4.77083e-014
rhumerus -109.39 42.7728 -139.886
rradius 70.2553
rwrist -38.2063
rhand 25.8996 2.14855
rfingers 7.12502
rthumb 49.9858 -19.0817
lclavicle -5.76476e-014 -4.77083e-014
lhumerus 37.9571 -2.05804 -5.37778
lradius 31.579
lwrist -14.1806
lhand 18.5431 25.5058
lfingers 7.12502
lthumb 43.1755 49.6895
rfemur -10.6433 -15.4627 33.3007
rtibia 37.0354
rfoot 14.1525 -10.358
rtoes -7.51994
lfemur -40.592 6.55431 -34.0656
ltibia 30.1257
lfoot -28.0545 24.8317
ltoes -0.428468
1155
root -5.38854 17.0375 10.2262 -158.394 -35.9035 -177.693
lowerback -17.2921 4.65135 0.610545
upperback -17.205 3.20091 2.49728
thorax -9.31355 0.443351 2.87183
lowerneck -1.91668 13.7118 5.62852
upperneck 19.319 15.4688 13.203
head 5.58423 8.57733 4.0089
rclavicle -1.70955e-014 -2.38542e-015
rhumerus -111.366 44.1508 -141.665
rradius 71.7341
rwrist -37.9277
rhand 25.4952 2.09053
rfingers 7.12502
rthumb 49.6154 -19.3318
lclavicle -1.70955e-014 -2.38542e-015
lhumerus 38.4505 -0.915083 -4.80214
lradius 31.3686
lwrist -14.2896
lhand 18.1316 25.9662
lfingers 7.12502
lthumb 42.7907 50.2857
rfemur -10.894 -15.6232 33.2105
rtibia 37.1036
rfoot 14.9315 -10.2656
rtoes -4.59584
lfemur -40.5353 6.43175 -34.1496
ltibia 30.1008
lfoot -28.3186 24.8758
ltoes 1.08485
1156
root -5.38687 17.036 10.2288 -158.238 -35.6091 -177.905
lowerback -17.1098 4.72925 0.256916
upperback -17.245 3.34774 2.41007
thorax -9.48951 0.551952 2.98021
lowerneck -2.46401 13.1708 5.2484
upperneck 19.8227 14.6427 13.1897
head 5.83646 8.17302 4.09321
rclavicle -1.17681e-013 -7.39479e-014
rhumerus -111.307 45.2338 -140.978
rradius 72.7792
rwrist -36.5907
rhand 26.2553 1.71385
rfingers 7.12502
rthumb 50.3111 -19.344
lclavicle -1.17681e-013 -7.39479e-014
lhumerus 39.1706 0.404148 -3.79484
lradius 30.8912
lwrist -14.7738
lhand 17.5416 25.638
lfingers 7.12502
lthumb 42.2384 50.1476
rfemur -11.2031 -15.4097 33.0587
rtibia 37.3085
rfoot 15.0878 -11.1647
rtoes -1.0154
lfemur -40.561 6.29942 -34.2784
ltibia 30.0573
lfoot -28.5509 24.9786
ltoes 3.13672
1157
root -5.37714 17.0371 10.2363 -158.237 -35.3117 -177.835
lowerback -16.8964 4.76346 0.0470684
upperback -17.2954 3.41628 2.48058
thorax -9.69404 0.612556 3.17411
lowerneck -2.82692 12.6716 4.69908
upperneck 20.3349 13.874 13.3364
head 6.03372 7.78706 4.23363
rclavicle -4.57205e-014 1.43125e-014
rhumerus -111.797 46.6831 -140.943
rradius 73.9805
rwrist -35.5911
rhand 26.6361 0.980314
rfingers 7.12502
rthumb 50.6589 -19.8895
lclavicle -4.57205e-014 1.43125e-014
lhumerus 39.4306 1.54556 -3.00742
lradius 30.7621
lwrist -14.9712
lhand 16.7239 25.4636
lfingers 7.12502
lthumb 41.4718 50.2282
rfemur -11.597 -14.8759 33.1897
rtibia 37.6454
rfoot 14.8744 -12.2922
rtoes 1.5565
lfemur -40.6626 6.43256 -34.2327
ltibia 29.9976
lfoot -28.6573 24.7844
ltoes 3.02434
